#N canvas 952 0 958 966 12;
#X obj 260 123 + 1;
#X obj 186 95 bng 15 250 50 0 empty empty empty 17 7 0 10 #fcfcfc #000000
#000000;
#X obj 185 20 tgl 15 0 empty empty empty 17 7 0 10 #fcfcfc #000000
#000000 0 1;
#X floatatom 186 151 5 0 0 0 - - - 0;
#X floatatom 186 237 5 0 0 0 - - - 0;
#X obj 186 206 + 1;
#X obj 470 346 bng 15 250 50 0 empty empty empty 17 7 0 10 #fcfcfc
#000000 #000000;
#X obj 39 348 bng 15 250 50 0 empty empty empty 17 7 0 10 #fcfcfc #000000
#000000;
#X obj 97 345 bng 15 250 50 0 empty empty empty 17 7 0 10 #fcfcfc #000000
#000000;
#X obj 152 346 bng 15 250 50 0 empty empty empty 17 7 0 10 #fcfcfc
#000000 #000000;
#X obj 172 585 mtof;
#X floatatom 173 620 5 0 0 0 - - - 0;
#X floatatom 228 18 5 0 0 0 - - - 0;
#X obj 208 346 bng 15 250 50 0 empty empty empty 17 7 0 10 #fcfcfc
#000000 #000000;
#X obj 262 348 bng 15 250 50 0 empty empty empty 17 7 0 10 #fcfcfc
#000000 #000000;
#X obj 366 346 bng 15 250 50 0 empty empty empty 17 7 0 10 #fcfcfc
#000000 #000000;
#X obj 421 347 bng 15 250 50 0 empty empty empty 17 7 0 10 #fcfcfc
#000000 #000000;
#X obj 166 786 output~;
#X msg 230 45 tempo \$1 permin;
#X obj 186 122 f;
#X obj 321 20 loadbang;
#X obj 186 71 metro;
#X obj 283 572 select 0;
#X floatatom 39 409 5 0 0 0 - - - 0;
#X floatatom 96 407 5 0 0 0 - - - 0;
#X floatatom 150 405 5 0 0 0 - - - 0;
#X floatatom 204 406 5 0 0 0 - - - 0;
#X floatatom 258 405 5 0 0 0 - - - 0;
#X floatatom 365 405 5 0 0 0 - - - 0;
#X floatatom 419 403 5 0 0 0 - - - 0;
#X floatatom 472 403 5 0 0 0 - - - 0;
#X obj 521 344 bng 15 250 50 0 empty empty empty 17 7 0 10 #fcfcfc
#000000 #000000;
#X floatatom 521 404 5 0 0 0 - - - 0;
#X obj 314 347 bng 15 250 50 0 empty empty empty 17 7 0 10 #fcfcfc
#000000 #000000;
#X floatatom 310 404 5 0 0 0 - - - 0;
#X obj 878 441 bng 15 250 50 0 empty empty empty 17 7 0 10 #fcfcfc
#000000 #000000;
#X obj 447 443 bng 15 250 50 0 empty empty empty 17 7 0 10 #fcfcfc
#000000 #000000;
#X obj 505 440 bng 15 250 50 0 empty empty empty 17 7 0 10 #fcfcfc
#000000 #000000;
#X obj 560 441 bng 15 250 50 0 empty empty empty 17 7 0 10 #fcfcfc
#000000 #000000;
#X obj 616 441 bng 15 250 50 0 empty empty empty 17 7 0 10 #fcfcfc
#000000 #000000;
#X obj 670 443 bng 15 250 50 0 empty empty empty 17 7 0 10 #fcfcfc
#000000 #000000;
#X obj 774 441 bng 15 250 50 0 empty empty empty 17 7 0 10 #fcfcfc
#000000 #000000;
#X obj 829 442 bng 15 250 50 0 empty empty empty 17 7 0 10 #fcfcfc
#000000 #000000;
#X floatatom 446 500 5 0 0 0 - - - 0;
#X floatatom 503 499 5 0 0 0 - - - 0;
#X floatatom 557 497 5 0 0 0 - - - 0;
#X floatatom 611 498 5 0 0 0 - - - 0;
#X floatatom 665 497 5 0 0 0 - - - 0;
#X floatatom 772 497 5 0 0 0 - - - 0;
#X floatatom 826 495 5 0 0 0 - - - 0;
#X floatatom 879 495 5 0 0 0 - - - 0;
#X obj 929 439 bng 15 250 50 0 empty empty empty 17 7 0 10 #fcfcfc
#000000 #000000;
#X floatatom 928 496 5 0 0 0 - - - 0;
#X obj 722 442 bng 15 250 50 0 empty empty empty 17 7 0 10 #fcfcfc
#000000 #000000;
#X floatatom 717 496 5 0 0 0 - - - 0;
#X obj 119 285 select 0 1 2 3 4 5 6 7 8 9 10 11 12 13 14 15 16 17 18
19 20 21 22 23 24 25 26 27 28 29 30 31 32 33 34 35 36 37 38 39 40 41
42 43 44 45 46 47 48 49 50 51 52 53 54 55 56 57 58 59 60 61 62 63 64
, f 112;
#X obj 186 176 % 64;
#X text 402 197 Veridis Quo - Daft Punk, f 24;
#X obj 505 599 loadbang;
#X msg 46 375 77;
#X msg 110 374 76;
#X msg 163 373 77;
#X msg 218 372 74;
#X msg 381 375 77;
#X msg 436 375 76;
#X msg 487 375 77;
#X msg 534 374 71;
#X msg 457 471 76;
#X msg 516 471 74;
#X msg 572 471 76;
#X msg 626 468 72;
#X msg 779 469 76;
#X msg 838 468 74;
#X msg 890 469 76;
#X msg 936 467 69;
#X text 130 19 start;
#X msg 279 20 430;
#X text 86 821 volume;
#X obj 176 736 *~ 0.5;
#X obj 241 705 *~;
#X obj 279 676 vline~;
#X text 324 609 A;
#X text 376 610 R;
#X text 410 610 S;
#X obj 192 657 phasor~;
#X msg 309 632 1 200 \, 0 150 75;
#X connect 0 0 19 1;
#X connect 1 0 19 0;
#X connect 1 0 85 0;
#X connect 2 0 21 0;
#X connect 3 0 56 0;
#X connect 4 0 55 0;
#X connect 5 0 4 0;
#X connect 6 0 30 0;
#X connect 7 0 23 0;
#X connect 8 0 24 0;
#X connect 9 0 25 0;
#X connect 10 0 11 0;
#X connect 11 0 84 0;
#X connect 12 0 18 0;
#X connect 13 0 26 0;
#X connect 14 0 27 0;
#X connect 15 0 28 0;
#X connect 16 0 29 0;
#X connect 18 0 21 0;
#X connect 19 0 0 0;
#X connect 19 0 3 0;
#X connect 20 0 76 0;
#X connect 21 0 1 0;
#X connect 22 1 10 0;
#X connect 23 0 22 0;
#X connect 24 0 22 0;
#X connect 25 0 22 0;
#X connect 26 0 22 0;
#X connect 27 0 22 0;
#X connect 28 0 22 0;
#X connect 29 0 22 0;
#X connect 30 0 22 0;
#X connect 31 0 32 0;
#X connect 32 0 22 0;
#X connect 33 0 34 0;
#X connect 34 0 22 0;
#X connect 35 0 50 0;
#X connect 36 0 43 0;
#X connect 37 0 44 0;
#X connect 38 0 45 0;
#X connect 39 0 46 0;
#X connect 40 0 47 0;
#X connect 41 0 48 0;
#X connect 42 0 49 0;
#X connect 43 0 22 0;
#X connect 44 0 22 0;
#X connect 45 0 22 0;
#X connect 46 0 22 0;
#X connect 47 0 22 0;
#X connect 48 0 22 0;
#X connect 49 0 22 0;
#X connect 50 0 22 0;
#X connect 51 0 52 0;
#X connect 52 0 22 0;
#X connect 53 0 54 0;
#X connect 54 0 22 0;
#X connect 55 1 7 0;
#X connect 55 2 8 0;
#X connect 55 3 9 0;
#X connect 55 4 13 0;
#X connect 55 5 14 0;
#X connect 55 6 33 0;
#X connect 55 7 15 0;
#X connect 55 8 16 0;
#X connect 55 9 6 0;
#X connect 55 10 31 0;
#X connect 55 32 36 0;
#X connect 55 33 37 0;
#X connect 55 34 38 0;
#X connect 55 35 39 0;
#X connect 55 36 40 0;
#X connect 55 37 53 0;
#X connect 55 38 41 0;
#X connect 55 39 42 0;
#X connect 55 40 35 0;
#X connect 55 41 51 0;
#X connect 56 0 5 0;
#X connect 58 0 59 0;
#X connect 58 0 60 0;
#X connect 58 0 61 0;
#X connect 58 0 62 0;
#X connect 58 0 63 0;
#X connect 58 0 64 0;
#X connect 58 0 65 0;
#X connect 58 0 66 0;
#X connect 58 0 67 0;
#X connect 58 0 68 0;
#X connect 58 0 69 0;
#X connect 58 0 70 0;
#X connect 58 0 71 0;
#X connect 58 0 72 0;
#X connect 58 0 73 0;
#X connect 58 0 74 0;
#X connect 59 0 23 0;
#X connect 60 0 24 0;
#X connect 61 0 25 0;
#X connect 62 0 26 0;
#X connect 63 0 28 0;
#X connect 64 0 29 0;
#X connect 65 0 30 0;
#X connect 66 0 32 0;
#X connect 67 0 43 0;
#X connect 68 0 44 0;
#X connect 69 0 45 0;
#X connect 70 0 46 0;
#X connect 71 0 48 0;
#X connect 72 0 49 0;
#X connect 73 0 50 0;
#X connect 74 0 52 0;
#X connect 76 0 12 0;
#X connect 78 0 17 0;
#X connect 78 0 17 1;
#X connect 79 0 78 0;
#X connect 80 0 79 1;
#X connect 84 0 79 0;
#X connect 85 0 80 0;
